<svg xmlns="http://www.w3.org/2000/svg" width="32" height="32" viewBox="0 0 32 32">
  <defs>
    <style>
      .cls-1 {
        fill: #fff;
        fill-rule: evenodd;
      }
    </style>
  </defs>
  <path id="Logo" class="cls-1" d="M162,353.527a4.712,4.712,0,0,1-4.724,4.7v0.011a4.727,4.727,0,0,1-3.347-1.381c-1.991-1.98-3.517-3.5-4.623-4.607a4,4,0,0,0,0-4.492c1.106-1.105,2.634-2.629,4.627-4.613a4.73,4.73,0,0,1,3.347-1.38v0.01a4.714,4.714,0,0,1,4.724,4.7c0,1.4-.945,2.36-0.945,3.525S162,352.124,162,353.527Zm-13.784-6.844a3.986,3.986,0,0,0-4.43,0c-1.109-1.105-2.645-2.638-4.649-4.642a4.7,4.7,0,0,1-1.381-3.335h0.01a4.705,4.705,0,0,1,4.7-4.706c1.406,0,2.363.94,3.53,0.94s2.123-.94,3.529-0.94a4.705,4.705,0,0,1,4.706,4.706h0.01a4.7,4.7,0,0,1-1.382,3.335C150.859,344.047,149.323,345.579,148.214,346.683Zm-10.144-3.537c2,1.985,3.522,3.509,4.629,4.615a4,4,0,0,0,0,4.488c-1.107,1.1-2.633,2.628-4.625,4.609a4.725,4.725,0,0,1-3.347,1.381v-0.011a4.712,4.712,0,0,1-4.724-4.7c0-1.4.945-2.36,0.945-3.524S130,347.882,130,346.478a4.714,4.714,0,0,1,4.724-4.7v-0.01A4.728,4.728,0,0,1,138.07,343.146Zm10.554,6.231a0.375,0.375,0,0,1,.375.375v0.5a0.375,0.375,0,0,1-.375.374h-0.606a2.165,2.165,0,0,1-.148.362l0.427,0.427a0.377,0.377,0,0,1,0,.531l-0.354.354a0.377,0.377,0,0,1-.53,0l-0.427-.427a2.087,2.087,0,0,1-.362.149v0.6a0.377,0.377,0,0,1-.375.376h-0.5a0.377,0.377,0,0,1-.375-0.376v-0.605a2.055,2.055,0,0,1-.362-0.149l-0.428.428a0.377,0.377,0,0,1-.53,0l-0.353-.354a0.375,0.375,0,0,1,0-.531l0.429-.429a2.063,2.063,0,0,1-.148-0.36h-0.608a0.375,0.375,0,0,1-.375-0.374v-0.5a0.375,0.375,0,0,1,.375-0.375h0.612a2.092,2.092,0,0,1,.148-0.355l-0.433-.433a0.375,0.375,0,0,1,0-.531l0.353-.354a0.374,0.374,0,0,1,.53,0l0.436,0.435a2.123,2.123,0,0,1,.354-0.146v-0.616a0.375,0.375,0,0,1,.375-0.375h0.5a0.375,0.375,0,0,1,.375.375v0.616a2.115,2.115,0,0,1,.355.145l0.434-.434a0.374,0.374,0,0,1,.53,0l0.354,0.354a0.377,0.377,0,0,1,0,.531l-0.431.431a2.079,2.079,0,0,1,.148.357h0.61ZM146,349a1,1,0,1,0,1,1A1,1,0,0,0,146,349Zm-2.249,4.309a3.985,3.985,0,0,0,4.5,0c1.105,1.106,2.626,2.632,4.606,4.623a4.727,4.727,0,0,1,1.38,3.347h-0.011a4.711,4.711,0,0,1-4.7,4.723c-1.405,0-2.36-.944-3.525-0.944s-2.121.944-3.525,0.944a4.711,4.711,0,0,1-4.7-4.723h-0.01a4.73,4.73,0,0,1,1.379-3.347C141.124,355.941,142.646,354.415,143.751,353.308Z" transform="translate(-130 -334)"/>
</svg>
